# AST/ASF file generated using VICON BodyLanguage
# -----------------------------------------------
:version 1.10
:name VICON
:units
  mass 1.0
  length 0.45
  angle deg
:documentation
   .ast/.asf automatically generated from VICON data using
   VICON BodyBuilder and BodyLanguage model FoxedUp or BRILLIANT.MOD
:root
   order TX TY TZ RX RY RZ
   axis XYZ
   position 0 0 0  
   orientation 0 -0 0 
:bonedata
  begin
     id 1 
     name lhipjoint
     direction 0.432694 -0.693742 0.575759 
     length 2.19277 
     axis 0 -0 0  XYZ
  end
  begin
     id 2 
     name lfemur
     direction 0.34202 -0.939693 0  
     length 6.69022  
     axis 0 -0 20  XYZ
    dof rx ry rz
    limits (-160.0 20.0)
           (-70.0 70.0)
           (-60.0 70.0)
  end
  begin
     id 3 
     name ltibia
     direction 0.34202 -0.939693 0   
     length 6.50337   
     axis 0 -0 20   XYZ
    dof rx
    limits (-10.0 170.0)
  end
  begin
     id 4 
     name lfoot
     direction 0.158999 -0.435969 0.885805   
     length 2.70564   
     axis -90 -1.13533e-015 20   XYZ
    dof rx rz
    limits (-45.0 90.0)
           (-70.0 20.0)
  end
  begin
     id 5 
     name ltoes
     direction -0.00592919 0.00964381 0.999936   
     length 1.29929   
     axis -90 -1.13533e-015 20   XYZ
    dof rx
    limits (-90.0 20.0)
  end
  begin
     id 6 
     name rhipjoint
     direction -0.414359 -0.700339 0.581234   
     length 2.17212  
     axis 0 -0 0  XYZ 
  end
  begin
     id 7 
     name rfemur
     direction -0.34202 -0.939693 0   
     length 7.17659   
     axis 0 -0 -20   XYZ
    dof rx ry rz
    limits (-160.0 20.0)
           (-70.0 70.0)
           (-70.0 60.0)
  end
  begin
     id 8 
     name rtibia
     direction -0.34202 -0.939693 0   
     length 6.36669   
     axis 0 -0 -20   XYZ
    dof rx
    limits (-10.0 170.0)
 end
 begin
     id 9 
     name rfoot
     direction -0.137064 -0.37658 0.916188   
     length 2.22351  
     axis -90 1.13533e-015 -20   XYZ
    dof rx rz
    limits (-45.0 90.0)
           (-20.0 70.0)
  end
  begin
     id 10 
     name rtoes
     direction -0.000784077 -0.00289101 0.999996   
     length 1.09522   
     axis -90 1.13533e-015 -20   XYZ
    dof rx
    limits (-90.0 20.0)
  end
  begin
     id 11 
     name lowerback
     direction -0.0176242 0.984912 -0.172157   
     length 1.65301   
     axis 0 -0 0   XYZ
    dof rx ry rz
    limits (-20.0 45.0)
           (-30.0 30.0)
           (-30.0 30.0)
  end
  begin
     id 12 
     name upperback
     direction -0.00218128 0.998776 -0.0494072   
     length 1.67776   
     axis 0 -0 0   XYZ
    dof rx ry rz
    limits (-20.0 45.0)
           (-30.0 30.0)
           (-30.0 30.0)
  end
  begin
     id 13 
     name thorax
     direction 0.00544186 0.999658 0.0255711   
     length 1.72293   
     axis 0 -0 0   XYZ
    dof rx ry rz
    limits (-20.0 45.0)
           (-30.0 30.0)
           (-30.0 30.0)
  end
  begin
     id 14 
     name lowerneck
     direction -0.105325 0.983841 0.144785   
     length 2.14226   
     axis 0 -0 0   XYZ
    dof rx ry rz
    limits (-20.0 45.0)
           (-30.0 30.0)
           (-30.0 30.0)
  end
  begin
     id 15 
     name upperneck
     direction 0.0547957 0.988053 -0.144041   
     length 2.17508   
     axis 0 -0 0   XYZ
    dof rx ry rz
    limits (-20.0 45.0)
           (-30.0 30.0)
           (-30.0 30.0)
  end
  begin
     id 16
     name head
     direction 0.0247488 0.997534 -0.0656813  
     length 2.20048  
     axis 0 -0 0   XYZ
    dof rx ry rz
    limits (-20.0 45.0)
           (-30.0 30.0)
           (-30.0 30.0)
  end
  begin
     id 17 
     name lclavicle
     direction 0.820559 0.567247 -0.0701026  
     length 4.09615  
     axis 0 -0 0   XYZ
    dof ry rz
    limits (-20.0 10.0)
           (0.0 20.0)
  end
  begin
     id 18 
     name lhumerus
     direction 0.999977 -0.0067566 -9.96392e-005   
     length 4.59333   
     axis -180 -30 -90   XYZ
    dof rx ry rz
    limits (-60.0 90.0)
           (-90.0 90.0)
           (-90.0 90.0)
  end
  begin
     id 19
     name lradius
     direction 1 -4.48982e-011 -2.53425e-027   
     length 2.81151   
     axis -180 -30 -90   XYZ
    dof rx
    limits (-10.0 170.0)
  end
  begin
     id 20
     name lwrist
     direction 1 -4.48939e-011 -7.39254e-028   
     length 1.40576   
     axis 2.56395e-016 90 90   XYZ
    dof ry
    limits (-180.0 0.0)
 end
  begin
     id 21 
     name lhand
     direction 1 -4.48939e-011 -1.47851e-027   
     length 0.895651   
     axis 9.43423e-016 90 90   XYZ
    dof rx rz
    limits (-90.0 90.0)
           (-45.0 45.0)
  end
  begin
     id 22 
     name lfingers
     direction 1 -4.48978e-011 -2.95702e-027   
     length 0.722097   
     axis 1.88685e-015 90 90   XYZ
    dof rx
    limits (0.0 90.0)
  end
  begin
     id 23
     name lthumb
     direction 0.707107 -6.34931e-011 0.707107   
     length 1.03679   
     axis -90 45 -9.86935e-015   XYZ
    dof rx rz
    limits (-45.0 45.0)
           (-45.0 45.0)
  end
  begin
     id 24 
     name rclavicle
     direction -0.831414 0.553102 -0.0531864   
     length 4.24872  
     axis 0 -0 0   XYZ 
    dof ry rz
    limits (-10.0 20.0)
           (-20.0 0.0)
  end
  begin
     id 25 
     name rhumerus
     direction -0.999916 -0.000939607 0.0129331  
     length 4.74834   
     axis -180 30 90   XYZ
    dof rx ry rz
    limits (-90.0 60.0)
           (-90.0 90.0)
           (-90.0 90.0)
  end
  begin
     id 26 
     name rradius
     direction -1 -4.48956e-011 -1.31752e-027   
     length 2.79907   
     axis -180 30 90   XYZ
    dof rx
    limits (-10.0 170.0)
  end
  begin
     id 27 
     name rwrist
     direction -1 -4.4897e-011 -7.39254e-028   
     length 1.39954   
     axis 2.56395e-016 -90 -90   XYZ
    dof ry
    limits (-180.0 0.0)
  end
  begin
     id 28
     name rhand
     direction -0.999997 -0.00250697 0.000800838   
     length 0.953304   
     axis 9.43423e-016 -90 -90   XYZ
    dof rx rz
    limits (-90.0 90.0)
           (-45.0 45.0)
  end
  begin
     id 29
     name rfingers
     direction -1 -4.48954e-011 -2.95702e-027   
     length 0.763342   
     axis 1.88685e-015 -90 -90   XYZ
    dof rx
    limits (0.0 90.0)
  end
  begin
     id 30
     name rthumb
     direction -0.709701 -0.00217037 0.7045   
     length 1.10115   
     axis -90 -45 9.86935e-015   XYZ
    dof rx rz
    limits (-45.0 45.0)
           (-45.0 45.0)
  end
:hierarchy
  begin
    root lhipjoint rhipjoint lowerback
    lhipjoint lfemur
    lfemur ltibia
    ltibia lfoot
    lfoot ltoes
    rhipjoint rfemur
    rfemur rtibia
    rtibia rfoot
    rfoot rtoes
    lowerback upperback
    upperback thorax
    thorax lowerneck lclavicle rclavicle
    lowerneck upperneck
    upperneck head
    lclavicle lhumerus
    lhumerus lradius
    lradius lwrist
    lwrist lhand lthumb
    lhand lfingers
    rclavicle rhumerus
    rhumerus rradius
    rradius rwrist
    rwrist rhand rthumb
    rhand rfingers
  end

#!OML:ASF G:\ViconDB\ViconDB\414\test\team2\shane.ASF
:FULLY-SPECIFIED
:DEGREES
1
root 3.43294 15.0513 -20.4994 20.8269 2.93351 -0.819475
lowerback 26.0952 1.60894 -1.89433
upperback 10.3719 1.67662 1.11519
thorax -3.04592 0.755415 1.82829
lowerneck -17.9887 -4.0491 -7.55785
upperneck -8.47998 -3.79569 12.663
head 0.766596 -1.47984 4.91127
rclavicle 2.18663e-015 2.78299e-015
rhumerus -69.5014 27.8811 -52.22
rradius 36.2784
rwrist 42.3756
rhand -31.3694 -8.28975
rfingers 7.12502
rthumb -4.63982 -38.2189
lclavicle 2.18663e-015 2.78299e-015
lhumerus -71.6604 -37.8341 63.2157
lradius 26.8546
lwrist -16.0117
lhand -40.2196 7.37479
lfingers 7.12502
lthumb -13.1794 36.9382
rfemur -63.3396 -32.2516 28.8502
rtibia 72.4217
rfoot -29.566 2.07349
rtoes -12.2044
lfemur -62.1102 24.823 -21.9676
ltibia 70.9749
lfoot -34.3268 -28.9049
ltoes -3.03507
2
root 3.41977 14.8038 -20.5613 21.964 2.72229 -0.444308
lowerback 26.2652 1.69174 -2.2927
upperback 10.334 1.68452 1.13527
thorax -3.17772 0.750864 2.0731
lowerneck -18.0835 -4.14803 -7.71007
upperneck -8.74679 -3.87948 12.3667
head 0.698607 -1.52644 4.84053
rclavicle -5.76476e-015 -2.18663e-015
rhumerus -70.727 26.4408 -51.0905
rradius 35.1624
rwrist 42.4494
rhand -30.6115 -8.23804
rfingers 7.12502
rthumb -3.90802 -38.1819
lclavicle -5.76476e-015 -2.18663e-015
lhumerus -71.9903 -35.7288 61.3679
lradius 25.5206
lwrist -16.8721
lhand -39.5273 7.00471
lfingers 7.12502
lthumb -12.512 36.6101
rfemur -67.0812 -31.9803 29.6403
rtibia 75.833
rfoot -30.7471 1.51611
rtoes -10.8722
lfemur -65.5185 25.0523 -23.1561
ltibia 74.0313
lfoot -35.3287 -29.1512
ltoes -2.48788
3
root 3.39995 14.5468 -20.626 22.9593 2.57846 -0.017913
lowerback 26.7455 1.69254 -2.5002
upperback 10.2619 1.61064 0.920243
thorax -3.47956 0.718895 1.97118
lowerneck -18.3706 -4.19685 -7.65123
upperneck -8.86995 -3.93316 12.1643
head 0.697968 -1.5523 4.76345
rclavicle 2.26615e-014 -1.2921e-014
rhumerus -71.8312 24.6625 -49.9905
rradius 33.9833
rwrist 43.5998
rhand -30.1596 -7.89666
rfingers 7.12502
rthumb -3.47161 -37.8481
lclavicle 2.26615e-014 -1.2921e-014
lhumerus -72.0398 -33.9005 59.2812
lradius 24.2272
lwrist -17.6103
lhand -38.8786 6.81917
lfingers 7.12502
lthumb -11.8866 36.4618
rfemur -70.8154 -31.8782 30.4168
rtibia 79.3204
rfoot -31.7456 0.995787
rtoes -10.1503
lfemur -68.7422 25.1118 -24.3015
ltibia 77.0748
lfoot -36.591 -28.9677
ltoes -2.77679
4
root 3.38673 14.2851 -20.6857 23.7706 2.54485 0.274756
lowerback 27.3073 1.71593 -2.62922
upperback 10.2971 1.5893 0.851774
thorax -3.70487 0.709335 1.9692
lowerneck -18.7012 -4.23941 -7.3951
upperneck -9.0111 -4.01866 11.6372
head 0.6827 -1.60542 4.54968
rclavicle 7.7526e-015 1.98785e-015
rhumerus -72.3187 22.5244 -48.4955
rradius 32.473
rwrist 44.4606
rhand -29.9184 -8.58983
rfingers 7.12502
rthumb -3.23867 -38.545
lclavicle 7.7526e-015 1.98785e-015
lhumerus -71.6896 -32.0043 57.4177
lradius 22.5065
lwrist -19.1962
lhand -38.6608 7.24344
lfingers 7.12502
lthumb -11.6765 36.8981
rfemur -74.1167 -31.7625 31.0054
rtibia 82.6965
rfoot -32.6159 0.774839
rtoes -9.47288
lfemur -71.7897 25.3293 -25.3338
ltibia 80.0713
lfoot -37.8129 -28.8812
ltoes -2.77045
5
root 3.37414 14.0281 -20.7342 24.3953 2.37585 0.646918
lowerback 27.77 1.7821 -2.94127
upperback 10.4351 1.58319 0.866581
thorax -3.77324 0.698933 2.1616
lowerneck -18.793 -4.29941 -7.79813
upperneck -9.31739 -3.9953 11.4957
head 0.602849 -1.58651 4.57731
rclavicle 5.96354e-015 -9.34288e-015
rhumerus -73.2299 21.4021 -47.9389
rradius 31.4807
rwrist 44.1269
rhand -29.4821 -8.77123
rfingers 7.12502
rthumb -2.81727 -38.7324
lclavicle 5.96354e-015 -9.34288e-015
lhumerus -71.3409 -30.0087 56.272
lradius 20.8942
lwrist -19.9629
lhand -38.6399 7.91036
lfingers 7.12502
lthumb -11.6564 37.5661
rfemur -77.1452 -31.7845 31.2627
rtibia 85.9907
rfoot -33.2958 0.978691
rtoes -9.49073
lfemur -74.5226 25.5693 -26.3094
ltibia 83.0264
lfoot -38.7311 -29.1017
ltoes -2.26636
6
root 3.37129 13.769 -20.7833 25.0089 2.19656 1.14334
lowerback 28.2905 1.89748 -3.21527
upperback 10.5275 1.63492 0.759063
thorax -3.91718 0.721706 2.17898
lowerneck -18.7575 -4.37031 -7.73033
upperneck -9.64953 -4.08909 11.2103
head 0.493104 -1.64733 4.47484
rclavicle -6.75868e-015 3.57812e-015
rhumerus -73.3544 19.1653 -46.5943
rradius 29.6053
rwrist 44.8767
rhand -29.598 -8.47928
rfingers 7.12502
rthumb -2.92919 -38.4389
lclavicle -6.75868e-015 3.57812e-015
lhumerus -71.0795 -28.6173 55.8283
lradius 19.3499
lwrist -20.6764
lhand -39.1354 8.23945
lfingers 7.12502
lthumb -12.1342 37.8676
rfemur -80.0565 -31.9309 31.2601
rtibia 89.1192
rfoot -33.9396 1.2358
rtoes -10.3145
lfemur -77.3985 25.6165 -27.3896
ltibia 85.9917
lfoot -39.1795 -29.5069
ltoes -1.88066
7
root 3.362 13.4961 -20.8145 25.213 1.88412 1.29822
lowerback 28.8182 1.93634 -3.2311
upperback 10.9231 1.6537 0.630957
thorax -3.71505 0.724379 2.03827
lowerneck -18.9056 -4.45893 -7.88848
upperneck -10.1092 -4.13941 11.1432
head 0.380338 -1.67147 4.48191
rclavicle -1.51076e-014 8.54774e-015
rhumerus -72.9604 16.9542 -45.4302
rradius 28.0672
rwrist 46.0063
rhand -29.5822 -8.19514
rfingers 7.12502
rthumb -2.91394 -38.155
lclavicle -1.51076e-014 8.54774e-015
lhumerus -70.6523 -27.0435 55.7607
lradius 17.9217
lwrist -20.8594
lhand -39.6147 8.47436
lfingers 7.12502
lthumb -12.5963 38.0746
rfemur -82.2026 -31.9045 31.1151
rtibia 92.143
rfoot -34.6922 1.50328
rtoes -11.5378
lfemur -79.5972 26.1799 -28.0374
ltibia 88.9154
lfoot -40.4889 -29.3846
ltoes -2.74871
8
root 3.35429 13.2315 -20.8428 25.3803 1.73511 1.47179
lowerback 29.5934 2.0109 -3.33489
upperback 11.1157 1.68895 0.589816
thorax -3.85569 0.738753 2.03213
lowerneck -18.8888 -4.47085 -7.71837
upperneck -10.4052 -4.18012 10.8128
head 0.274964 -1.70794 4.35221
rclavicle -1.27222e-014 1.27222e-014
rhumerus -72.5677 14.7585 -44.3159
rradius 26.4554
rwrist 48.3786
rhand -29.7113 -8.75809
rfingers 7.12502
rthumb -3.03866 -38.7162
lclavicle -1.27222e-014 1.27222e-014
lhumerus -69.9659 -25.4122 55.658
lradius 16.4653
lwrist -22.1163
lhand -40.0974 8.78645
lfingers 7.12502
lthumb -13.0616 38.3575
rfemur -84.1808 -31.9835 30.9123
rtibia 94.9933
rfoot -35.4185 2.02118
rtoes -11.9909
lfemur -81.7571 26.5511 -28.6155
ltibia 91.7564
lfoot -41.4414 -29.3083
ltoes -3.38635
9
root 3.34587 12.9823 -20.8571 25.3495 1.48046 1.63801
lowerback 30.256 2.09196 -3.38717
upperback 11.4184 1.74253 0.458838
thorax -3.81351 0.761194 1.89343
lowerneck -18.6061 -4.42861 -7.41106
upperneck -10.9847 -4.17418 10.4872
head 0.0413542 -1.73596 4.21146
rclavicle 1.07344e-014 9.34288e-015
rhumerus -71.9036 12.4588 -43.4897
rradius 25.0819
rwrist 49.9659
rhand -29.771 -8.40059
rfingers 7.12502
rthumb -3.09626 -38.3579
lclavicle 1.07344e-014 9.34288e-015
lhumerus -69.7643 -24.5065 56.8745
lradius 15.6052
lwrist -22.0392
lhand -40.2103 9.01915
lfingers 7.12502
lthumb -13.1705 38.5832
rfemur -85.9025 -32.259 30.8413
rtibia 97.7262
rfoot -36.2869 2.54173
rtoes -12.205
lfemur -83.5233 27.0509 -28.9395
ltibia 94.4684
lfoot -42.1298 -29.8233
ltoes -3.6684
10
root 3.33767 12.7454 -20.8668 25.2308 1.23926 1.57776
lowerback 30.7741 2.25661 -3.62685
upperback 11.8386 1.87574 0.637305
thorax -3.58594 0.80423 2.18262
lowerneck -18.8549 -4.36397 -7.51934
upperneck -11.1603 -4.04978 10.1848
head 0.00146151 -1.66787 4.14408
rclavicle 2.78299e-015 -4.37326e-015
rhumerus -71.2842 11.0946 -43.8557
rradius 24.5324
rwrist 50.4865
rhand -29.8883 -8.57676
rfingers 7.12502
rthumb -3.20955 -38.5323
lclavicle 2.78299e-015 -4.37326e-015
lhumerus -68.8078 -22.6107 57.4026
lradius 14.7599
lwrist -23.3349
lhand -40.2504 9.17051
lfingers 7.12502
lthumb -13.2091 38.732
rfemur -87.4271 -32.4334 31.1312
rtibia 100.266
rfoot -37.1172 2.70996
rtoes -12.7549
lfemur -85.1268 27.647 -28.7818
ltibia 97.0562
lfoot -42.0784 -31.1254
ltoes -3.14429
11
root 3.33161 12.4909 -20.8589 25.1011 0.841836 1.51807
lowerback 31.1456 2.46871 -3.92973
upperback 12.148 2.04633 0.756316
thorax -3.41858 0.865285 2.43084
lowerneck -18.5704 -4.30249 -7.74483
upperneck -11.5462 -3.92309 10.1242
head -0.162944 -1.60752 4.1789
rclavicle -1.59028e-015 -3.18055e-015
rhumerus -70.279 9.55124 -44.062
rradius 23.9706
rwrist 50.9671
rhand -29.8164 -8.59805
rfingers 7.12502
rthumb -3.14018 -38.5547
lclavicle -1.59028e-015 -3.18055e-015
lhumerus -67.7721 -20.8915 58.0552
lradius 14.0614
lwrist -24.5934
lhand -39.9848 8.03698
lfingers 7.12502
lthumb -12.9531 37.6149
rfemur -89.1864 -32.7081 31.6922
rtibia 102.828
rfoot -37.9146 2.47139
rtoes -13.6166
lfemur -86.5579 28.5402 -29.0857
ltibia 99.558
lfoot -43.6866 -30.7224
ltoes -4.17577
